<?xml version="1.0" encoding="UTF-8"?>
<svg version="1.1" xmlns="http://www.w3.org/2000/svg" width="512" height="512">
<path d="M0 0 C0.72928711 0.34321289 1.45857422 0.68642578 2.20996094 1.04003906 C2.98823242 1.3987207 3.76650391 1.75740234 4.56835938 2.12695312 C18.50346717 8.72422322 30.41564718 17.22083494 41.70996094 27.66503906 C42.95712891 28.80585937 42.95712891 28.80585937 44.22949219 29.96972656 C69.67571203 54.3018387 82.24802546 87.4177273 86.70996094 121.66503906 C87.2256665 121.45411621 87.74137207 121.24319336 88.27270508 121.02587891 C112.80362582 111.0927828 137.59343091 104.57617804 164.14746094 104.22753906 C165.75693604 104.19394287 165.75693604 104.19394287 167.39892578 104.15966797 C174.9082989 104.18245636 174.9082989 104.18245636 178.87011719 106.56738281 C181.55433704 109.62773538 181.84069613 111.3059734 181.88696289 115.28808594 C181.89979813 116.25089478 181.91263336 117.21370361 181.92585754 118.20568848 C181.93693794 119.77884827 181.93693794 119.77884827 181.94824219 121.38378906 C181.95631393 122.47026733 181.96438568 123.55674561 181.97270203 124.67614746 C181.98656542 126.98964842 181.99727742 129.30317004 182.00512695 131.61669922 C182.01654331 133.95367538 182.03682644 136.29062767 182.06665039 138.62744141 C182.46775295 170.05685165 175.26815389 197.96547146 153.12158203 221.27075195 C148.02064595 226.48502379 142.7927501 231.60984629 136.70996094 235.66503906 C137.43655568 238.79350659 137.43655568 238.79350659 139.95996094 240.35253906 C145.12219947 244.69351237 147.89641552 250.22799508 149.70996094 256.66503906 C149.94140919 259.52272361 150.08435054 262.28311264 150.11621094 265.14160156 C150.12761108 265.9481015 150.13901123 266.75460144 150.15075684 267.58554077 C150.16957978 269.28825705 150.18269407 270.99104491 150.19042969 272.69384766 C150.20975308 275.26240919 150.27181414 277.82770229 150.33496094 280.39550781 C150.47668171 291.37267368 149.44815351 300.44922674 141.63623047 308.91137695 C137.90722936 312.42722476 133.05762842 316.66503906 127.70996094 316.66503906 C127.63591758 317.26992566 127.56187422 317.87481226 127.48558712 318.49802876 C125.62142423 333.68134146 123.6272709 348.84135201 121.49511719 363.98925781 C121.34840513 365.03221323 121.20169308 366.07516865 121.0505352 367.14972878 C120.27692541 372.64405232 119.50044324 378.13796192 118.72192383 383.6315918 C118.08489158 388.1311184 117.45402252 392.63144566 116.82836914 397.13256836 C116.06273814 402.64051114 115.28665459 408.14688753 114.50320244 413.65232277 C114.20981512 415.72600967 113.91996423 417.80020047 113.6339283 419.87491417 C109.2256204 451.78658997 109.2256204 451.78658997 97.70996094 461.66503906 C90.86704509 466.39823804 85.34407258 467.81432301 77.08309937 467.81221008 C76.31086238 467.81588677 75.53862539 467.81956346 74.74298728 467.82335156 C72.15303295 467.83437231 69.56311878 467.83822953 66.97314453 467.84204102 C65.11688103 467.84830694 63.26061879 467.85495385 61.40435791 467.86195374 C55.30571362 467.88298317 49.20706911 467.89335584 43.10839844 467.90332031 C41.00735079 467.90736844 38.90630327 467.91148538 36.80525589 467.91567039 C26.93277522 467.93472048 17.06030201 467.94895128 7.18780649 467.95728236 C-4.19978325 467.96705114 -15.58717842 467.99336213 -26.97469962 468.03378326 C-35.78165939 468.06396909 -44.58856348 468.07875363 -53.39557397 468.08206338 C-58.65306188 468.08441125 -63.91034189 468.0933375 -69.1677742 468.11852455 C-74.11723773 468.14185305 -79.06635719 468.14601926 -84.01586151 468.13576317 C-85.82741568 468.13526884 -87.63898707 468.14155869 -89.45048904 468.15531921 C-101.96344841 468.24501294 -112.09388782 467.51300688 -121.54003906 458.50488281 C-130.14265308 449.46061674 -131.52015767 438.58936267 -133.19116211 426.54003906 C-133.35741089 425.38257675 -133.52365967 424.22511444 -133.69494629 423.03257751 C-134.23730531 419.24432592 -134.76968971 415.45474854 -135.30175781 411.66503906 C-135.67806239 409.01985777 -136.05487817 406.37475405 -136.43232727 403.72973633 C-137.21941045 398.20638467 -138.00128802 392.68231729 -138.77954102 387.15771484 C-139.77843137 380.06704261 -140.78581503 372.97760425 -141.7959013 365.88851929 C-142.57271401 360.43632588 -143.34667104 354.98372832 -144.11976051 349.53100586 C-144.49061468 346.91539484 -144.8618283 344.29983476 -145.23340416 341.68432617 C-145.75020385 338.04148972 -146.26412821 334.39826007 -146.77709961 330.75488281 C-146.93134903 329.67021225 -147.08559845 328.58554169 -147.24452209 327.46800232 C-147.38322723 326.47849075 -147.52193237 325.48897919 -147.6648407 324.46948242 C-147.78630809 323.60898788 -147.90777548 322.74849335 -148.0329237 321.86192322 C-148.29003906 319.66503906 -148.29003906 319.66503906 -148.29003906 316.66503906 C-149.52753906 316.35566406 -149.52753906 316.35566406 -150.79003906 316.04003906 C-159.83643198 312.48609899 -165.07430876 306.09947443 -169.34570312 297.55273438 C-170.58293622 293.76938561 -170.61465121 290.15450594 -170.62597656 286.21582031 C-170.63263336 285.40316208 -170.63929016 284.59050385 -170.64614868 283.7532196 C-170.6562499 282.03610486 -170.66096649 280.31895106 -170.66064453 278.60180664 C-170.66499632 276.00306609 -170.70128121 273.40605525 -170.73925781 270.80761719 C-170.81955977 259.10886708 -169.919137 250.04887127 -161.75488281 241.04003906 C-160.29003906 239.66503906 -160.29003906 239.66503906 -157.29003906 237.66503906 C-158.50324457 234.02542255 -159.7580671 233.31401803 -162.79003906 231.04003906 C-184.58606691 213.99442754 -198.46255106 188.99923995 -202.29003906 161.66503906 C-202.56842113 157.64465075 -202.61737964 153.63950824 -202.62597656 149.61035156 C-202.63263336 148.50577606 -202.63929016 147.40120056 -202.64614868 146.26315308 C-202.65620099 143.94888967 -202.66096803 141.63459771 -202.66064453 139.3203125 C-202.66505343 135.77849487 -202.70154995 132.23788987 -202.73925781 128.69628906 C-202.74512038 126.43848079 -202.74909352 124.18066666 -202.75097656 121.92285156 C-202.7653476 120.86760284 -202.77971863 119.81235413 -202.79452515 118.72512817 C-202.74891179 111.42213786 -202.74891179 111.42213786 -200.38623047 107.52392578 C-193.63319434 101.5353843 -179.74865692 104.23358489 -171.29003906 104.66503906 C-148.96313479 106.70258857 -127.91806789 113.15188431 -107.29003906 121.66503906 C-107.14308594 120.53710938 -106.99613281 119.40917969 -106.84472656 118.24707031 C-102.04349157 83.60958928 -88.18520994 53.42509368 -63.29003906 28.66503906 C-61.96746094 27.34246094 -61.96746094 27.34246094 -60.61816406 25.99316406 C-49.61064098 15.50670716 -36.84129189 7.84910089 -23.09472656 1.50146484 C-21.32201079 0.67985713 -19.57123102 -0.18855817 -17.82128906 -1.05761719 C-11.19015056 -3.45627017 -6.26855692 -2.75127967 0 0 Z " fill="#020201" transform="translate(266.2900390625,23.3349609375)"/>
<path d="M0 0 C76.56 0 153.12 0 232 0 C231.01 7.26 230.02 14.52 229 22 C228.48325038 25.82991642 227.96726342 29.65990549 227.45361328 33.49023438 C226.16575771 43.06929504 224.85732559 52.64543325 223.53654671 62.22000885 C222.74473808 67.96475917 221.96088119 73.71038107 221.19384766 79.45849609 C220.44313477 85.08200545 219.67258248 90.70246836 218.88811874 96.32136536 C218.59477324 98.44781508 218.30853766 100.57525869 218.02969742 102.70365906 C217.64047619 105.6654402 217.22589308 108.62263029 216.80517578 111.58007812 C216.69695496 112.4496666 216.58873413 113.31925507 216.47723389 114.2151947 C215.62846143 119.92457285 214.13325715 122.92995754 210 127 C207.04711448 128.47644276 204.05247239 128.15161731 200.81451416 128.15390015 C200.06566507 128.1582824 199.31681598 128.16266465 198.5452745 128.1671797 C196.02269353 128.18059075 193.50014752 128.18675172 190.97753906 128.19287109 C189.17419272 128.20077025 187.37084796 128.20903909 185.56750488 128.21765137 C179.63356033 128.24389328 173.69960863 128.25918128 167.765625 128.2734375 C165.72454575 128.27879631 163.68346654 128.28417382 161.64238739 128.28956985 C153.15318031 128.31120186 144.66397515 128.32993923 136.17474747 128.34119225 C124.00024721 128.35743525 111.82606594 128.39061795 99.65168595 128.44759309 C91.09620857 128.48626964 82.54081658 128.50582224 73.98525405 128.51111281 C68.8731244 128.51476943 63.76133479 128.5268237 58.64929962 128.55921555 C53.83935047 128.58925586 49.02994783 128.59562243 44.21992493 128.58383179 C42.45505997 128.58361071 40.69016995 128.59194377 38.92539215 128.60948563 C36.51407607 128.63214822 34.10474659 128.62389763 31.69342041 128.60800171 C30.99632721 128.6218838 30.29923401 128.63576588 29.58101678 128.65006864 C25.8986454 128.59032897 23.47670895 127.96174283 20.59889507 125.75244141 C18.02885331 123.030558 17.19826636 121.96116455 16.72425842 118.35293579 C16.5950104 117.47976337 16.46576237 116.60659096 16.33259773 115.70695877 C16.22284048 114.81366238 16.11308323 113.92036598 16 113 C15.7337139 111.28813287 15.46595608 109.57649405 15.19676208 107.86508179 C14.93228409 106.02813777 14.67079531 104.19076158 14.41186523 102.35302734 C14.26687592 101.34029251 14.1218866 100.32755768 13.97250366 99.28413391 C13.49850639 95.96844643 13.02849287 92.65220803 12.55859375 89.3359375 C12.22776935 87.01523685 11.89671606 84.69456881 11.56544495 82.37393188 C10.87372389 77.52426678 10.18380644 72.67434997 9.49536133 67.82421875 C8.61457255 61.61907809 7.73075781 55.41437358 6.84577847 49.20982933 C5.9990642 43.27283906 5.15373134 37.33565238 4.30859375 31.3984375 C4.14819548 30.27225384 3.9877972 29.14607018 3.82253838 27.98575974 C3.36718749 24.78667394 2.91280282 21.58745247 2.45874023 18.38818359 C2.25845467 16.98215126 2.25845467 16.98215126 2.05412292 15.54771423 C1.92942627 14.66768234 1.80472961 13.78765045 1.67625427 12.88095093 C1.51561068 11.75003556 1.51561068 11.75003556 1.35172176 10.59627342 C0.87371193 7.06779056 0.44165222 3.5332178 0 0 Z " fill="#987D6B" transform="translate(140,341)"/>
<path d="M0 0 C30.61172334 17.91905756 54.50717041 44.53332954 63.67578125 79.46875 C65.04235056 85.09234938 65.97673158 90.72664928 66.67578125 96.46875 C66.77391113 97.19368652 66.87204102 97.91862305 66.97314453 98.66552734 C67.55642916 103.41331604 67.75504316 107.75379265 66.67578125 112.46875 C64.39087532 114.99343001 62.20809274 116.14036595 59.15625 117.640625 C54.81176834 119.92257496 51.25653059 122.78639609 47.48828125 125.90625 C46.79976074 126.46940918 46.11124023 127.03256836 45.40185547 127.61279297 C41.02645432 131.23137937 36.90668555 134.99119712 33.05859375 139.17578125 C31.67578125 140.46875 31.67578125 140.46875 29.67578125 140.46875 C29.41410156 141.06300781 29.15242188 141.65726563 28.8828125 142.26953125 C27.60230163 144.60263034 26.33200031 145.88145188 24.36328125 147.65625 C11.84576409 159.92432388 2.47478738 175.26216226 -6.00390625 190.484375 C-6.65746094 191.46664062 -6.65746094 191.46664062 -7.32421875 192.46875 C-7.98421875 192.46875 -8.64421875 192.46875 -9.32421875 192.46875 C-10.37060547 190.97851562 -10.37060547 190.97851562 -11.50390625 188.875 C-11.93195557 188.09962891 -12.36000488 187.32425781 -12.80102539 186.52539062 C-13.2624292 185.68169922 -13.72383301 184.83800781 -14.19921875 183.96875 C-21.44814207 171.10001048 -29.98819859 159.61582235 -40.09375 148.8515625 C-42.07710799 146.73273873 -43.95661815 144.56397449 -45.82421875 142.34375 C-51.74989417 135.56367487 -58.67719058 129.8642701 -65.76171875 124.34375 C-66.30481689 123.91545898 -66.84791504 123.48716797 -67.4074707 123.04589844 C-70.97934332 120.29707952 -74.58309588 118.34450988 -78.63671875 116.34375 C-82.11268248 114.15987192 -83.13899193 113.2105393 -84.14453125 109.18359375 C-84.27540754 104.82541341 -83.95191174 100.77434567 -83.32421875 96.46875 C-83.21062012 95.66614746 -83.09702148 94.86354492 -82.97998047 94.03662109 C-79.48352777 70.99612569 -70.31751145 49.41601924 -55.32421875 31.46875 C-54.504375 30.48519531 -53.68453125 29.50164062 -52.83984375 28.48828125 C-41.77040664 15.63734037 -18.02093613 -8.30106576 0 0 Z " fill="#80A46A" transform="translate(264.32421875,46.53125)"/>
<path d="M0 0 C1.0658459 -0.00467997 2.13169179 -0.00935994 3.22983605 -0.01418173 C6.80732641 -0.02616376 10.38443599 -0.01666166 13.96192932 -0.00723267 C16.52432987 -0.01129695 19.08672868 -0.01663802 21.64912415 -0.02316284 C27.89028965 -0.03543673 34.13131376 -0.03362019 40.37248116 -0.02492492 C45.44526038 -0.01815007 50.51800926 -0.01723079 55.5907917 -0.02049637 C56.3127512 -0.02095607 57.0347107 -0.02141577 57.77854775 -0.0218894 C59.2452027 -0.02284857 60.71185765 -0.02382121 62.17851258 -0.02480717 C75.93281087 -0.03336264 89.68704919 -0.0235248 103.44133765 -0.00740607 C115.2413631 0.00599442 127.0413 0.00367156 138.84132385 -0.01016235 C152.54481481 -0.02622031 166.24825319 -0.03253566 179.95175225 -0.02332556 C181.41332089 -0.02236992 182.87488954 -0.02142681 184.33645821 -0.02049637 C185.41512856 -0.01980213 185.41512856 -0.01980213 186.51559023 -0.01909386 C191.58135398 -0.01650441 196.64708436 -0.02087407 201.71284294 -0.02793503 C208.53282118 -0.03723214 215.35260637 -0.03060373 222.1725769 -0.01325226 C224.67758468 -0.0092811 227.18260651 -0.01043216 229.68760872 -0.01704025 C233.10329085 -0.02522076 236.51843435 -0.01497569 239.93408203 0 C241.42605682 -0.01003825 241.42605682 -0.01003825 242.94817251 -0.02027929 C248.22312164 0.02467267 251.98921893 0.38205035 256.53053284 3.38095093 C260.93106832 8.86054492 260.00700287 15.11914738 259.96803284 21.81845093 C259.98801331 23.03339233 260.00799377 24.24833374 260.02857971 25.50009155 C260.02247273 36.64532532 260.02247273 36.64532532 255.53053284 41.38095093 C252.37712897 43.48322017 251.64837126 43.63187213 248.05237007 43.63821983 C246.66861095 43.64789317 246.66861095 43.64789317 245.25689709 43.65776193 C244.24183586 43.65466473 243.22677464 43.65156752 242.18095398 43.64837646 C240.56531408 43.65517313 240.56531408 43.65517313 238.91703498 43.66210711 C235.28962279 43.6748185 231.66235944 43.6731264 228.03492737 43.67147827 C225.44164333 43.6774593 222.84836107 43.68426385 220.25508118 43.6918335 C213.93113257 43.70845924 207.60722124 43.71394375 201.28325261 43.71505825 C196.14367764 43.71600799 191.00411499 43.72011454 185.86454391 43.7264595 C171.29848292 43.74407625 156.73245143 43.7532977 142.16637971 43.75179856 C141.3808227 43.75171864 140.59526569 43.75163873 139.78590393 43.7515564 C138.99938969 43.75147464 138.21287544 43.75139287 137.40252744 43.75130863 C124.65405505 43.75049562 111.90570079 43.76963598 99.15726258 43.79783313 C86.07272143 43.82654571 72.98823793 43.84037432 59.90366447 43.83864558 C52.55546258 43.83798111 45.20738452 43.84349816 37.85921097 43.86500168 C30.94978031 43.88509139 24.04061559 43.88455641 17.13117218 43.86996841 C14.59187565 43.86787053 12.05256302 43.87263905 9.51329422 43.88468933 C6.0532442 43.90004869 2.5941083 43.89089447 -0.86592102 43.87542725 C-1.8765208 43.88571437 -2.88712059 43.8960015 -3.92834461 43.90660036 C-8.30497175 43.86320972 -10.76815318 43.816547 -14.55133247 41.46676064 C-19.84349454 35.71198071 -18.80149444 29.40677489 -18.78196716 21.94345093 C-18.80613708 20.10170288 -18.80613708 20.10170288 -18.83079529 18.2227478 C-18.83143982 17.0387439 -18.83208435 15.85473999 -18.83274841 14.63485718 C-18.83721985 13.01559326 -18.83721985 13.01559326 -18.84178162 11.36361694 C-18.30125634 7.03338918 -16.86860444 4.53865254 -13.51194668 1.76122093 C-9.02664002 -0.27361092 -4.87158116 -0.03270344 0 0 Z " fill="#AF8D76" transform="translate(135.46946716308594,276.6190490722656)"/>
<path d="M0 0 C0.61160503 31.14167339 -2.50740392 56.88750075 -24.65795898 80.70117188 C-37.93661099 94.41225739 -57.39636436 105.51065948 -76.83456421 106.12025452 C-78.2925404 106.12312505 -79.75053404 106.12055955 -81.20849609 106.11352539 C-82.00916504 106.11367142 -82.80983398 106.11381744 -83.63476562 106.1139679 C-86.26435109 106.1132748 -88.8938645 106.10551076 -91.5234375 106.09765625 C-93.35332195 106.09578993 -95.18320691 106.09436704 -97.01309204 106.09336853 C-101.81676628 106.08956023 -106.62041003 106.0797444 -111.42407227 106.06866455 C-116.33088773 106.05841411 -121.23770815 106.05386314 -126.14453125 106.04882812 C-135.76303419 106.03812056 -145.38151455 106.02106447 -155 106 C-153.72185335 103.42857896 -152.44208636 100.85798609 -151.16137695 98.2878418 C-150.80144905 97.56330559 -150.44152115 96.83876938 -150.07068634 96.09227753 C-147.63430194 91.20707064 -145.11604312 86.42413604 -142.1875 81.8125 C-141.77717529 81.16087891 -141.36685059 80.50925781 -140.9440918 79.83789062 C-136.55342212 73.04050188 -131.38227707 67.02183777 -126 61 C-124.77032277 59.56293673 -123.54108217 58.12549958 -122.3125 56.6875 C-92.52295006 23.12180992 -45.25572987 -0.6398625 0 0 Z " fill="#A8C894" transform="translate(427,150)"/>
<path d="M0 0 C7.19005739 -0.19970011 13.88838006 0.20193502 20.9375 1.625 C21.83791016 1.80393799 22.73832031 1.98287598 23.66601562 2.16723633 C73.0555693 12.38205068 114.43553704 40.2144297 142.34912109 82.15161133 C155 101.70829194 155 101.70829194 155 106 C144.32421003 106.11657217 133.64857495 106.20505595 122.97227478 106.25906086 C118.01318657 106.28499901 113.05453826 106.32010338 108.09570312 106.37719727 C103.29753382 106.43208672 98.49978384 106.46153872 93.70132446 106.47438622 C91.88352876 106.48352512 90.06575234 106.50136674 88.24813843 106.52865028 C64.94590625 106.86407155 45.77778837 99.06673562 28 84 C27.26136719 83.37609375 26.52273437 82.7521875 25.76171875 82.109375 C11.66747766 69.11668782 1.34847337 48.09249794 0 29 C-0.30904518 19.33420524 -0.18985835 9.66719748 0 0 Z " fill="#91B67D" transform="translate(85,150)"/>
<path d="M0 0 C0.66 0.33 1.32 0.66 2 1 C-5.26 8.26 -12.52 15.52 -20 23 C-20.66 22.67 -21.32 22.34 -22 22 C-15.04822797 14.17421407 -7.88450894 6.89322639 0 0 Z " fill="#222917" transform="translate(214,42)"/>
</svg>
